<svg width="244" height="145" viewBox="0 0 244 145" fill="none" xmlns="http://www.w3.org/2000/svg">
<path d="M235.449 1.10958C230.866 3.1669 224.622 4.25271 213.222 5.05278C206.003 5.56711 204.342 5.50996 198.327 4.4813C180.224 1.45247 151.637 1.33817 114.228 4.30986C98.6454 5.50996 97.4996 5.50996 87.0159 3.96697C75.902 2.36683 61.1216 1.79535 53.7888 2.70972C31.2172 5.50996 19.5877 14.7679 12.083 36.0268C8.76028 45.3991 6.92706 55.9714 5.38028 75.3445C4.06265 91.3459 2.34401 111.405 1.08367 124.777C-0.405819 140.493 -0.405819 141.35 1.37011 143.065C3.14604 144.893 5.66672 144.893 7.67181 143.179C9.44774 141.693 9.39045 142.15 12.8277 102.661C16.9525 54.3713 17.4108 50.8281 20.8481 40.713C23.9989 31.3407 27.6081 25.1116 32.8213 20.4255C35.5138 17.9682 42.0447 14.9393 47.4871 13.6249C52.0128 12.5391 69.2565 11.2819 69.2565 12.0248C69.2565 12.1962 67.5952 13.3963 65.5328 14.7107C52.8149 22.94 45.2528 36.7126 41.9301 57.9144C40.4406 67.2867 40.5552 87.5741 42.2166 96.4891C45.2528 113.176 50.8098 124.549 60.2623 133.407C74.9281 147.179 99.4474 148.894 116.691 137.407C133.878 125.863 144.476 98.7751 144.533 65.9151C144.59 57.1715 144.361 54.7142 143.273 49.6852C140.007 35.1125 133.19 23.6829 123.222 16.0251L120.243 13.6821L122.649 13.3963C132.56 12.0819 179.995 11.3962 180.682 12.5391C180.911 12.8249 180.797 13.0535 180.51 13.0535C179.364 13.0535 173.406 19.6254 171.573 22.94C168.938 27.6833 167.849 31.7408 167.391 37.9699C166.761 47.8564 170.084 57.0572 176.729 63.7435L180.396 67.3438L177.531 68.7725C170.256 72.43 163.667 79.2877 160.058 86.8312C157.194 92.946 156.163 97.5178 156.163 104.49C156.163 115.862 160.116 125.463 168.079 133.407C175.87 141.179 184.52 144.493 197.009 144.493C208.352 144.493 217.06 141.35 224.049 134.835C230.122 129.178 234.017 121.12 235.449 111.348C236.251 105.69 235.85 96.5463 234.476 91.6316C232.528 84.2595 227.544 76.8875 221.414 72.1442L219.18 70.3726L221.758 68.6011C230.236 62.772 235.564 51.4567 235.621 39.0557C235.621 30.0263 232.871 22.7686 227.372 17.2824C225.825 15.7394 224.507 14.3107 224.507 14.1393C224.507 13.9107 225.825 13.5678 227.486 13.3963C232.127 12.7677 241.121 9.68174 242.61 8.1959C244.501 6.31003 244.444 3.22405 242.553 1.33817C240.892 -0.376259 238.944 -0.433407 235.449 1.10958ZM105.291 17.2252C111.363 19.3397 115.374 21.9114 120.587 27.0547C128.206 34.5982 132.503 43.4561 134.393 55.6285C136.226 67.801 133.763 89.4028 128.779 103.976C127.003 109.29 122.42 117.977 119.384 121.748C106.608 137.921 81.3443 139.921 66.5067 125.92C54.8199 114.891 48.862 92.946 50.8098 67.801C52.0128 52.6568 54.9345 41.7988 60.0332 34.0267C66.6786 23.9687 75.8447 18.4253 89.823 16.1966C96.1247 15.1679 100.02 15.3965 105.291 17.2252ZM208.18 16.7109C221.7 20.997 228.117 31.455 225.367 44.7705C222.846 57.0572 216.029 63.4578 204.628 64.315C194.317 65.115 183.947 59.9146 179.88 51.9711C176.672 45.6848 176.213 37.2269 178.677 30.5407C181.255 23.6829 188.53 18.1968 197.697 16.1966C202.681 15.1108 203.253 15.1679 208.18 16.7109ZM205.602 75.4016C211.159 76.8875 214.654 78.8305 218.263 82.4308C225.825 90.0886 228.288 103.69 224.278 116.205C220.325 128.72 211.274 134.778 196.665 134.778C194.03 134.778 190.536 134.492 188.874 134.15C175.526 131.349 165.902 118.948 165.902 104.49C165.902 91.6316 173.12 80.945 185.15 76.0874C191.395 73.5729 197.639 73.3443 205.602 75.4016Z" fill="black"/>
</svg>
