<svg width="178" height="69" viewBox="0 0 178 69" fill="none" xmlns="http://www.w3.org/2000/svg">
<path d="M16.704 68V3.68L19.776 6.944H0.864V0.799995H23.616V68H16.704ZM60.8955 68.576C56.0955 68.576 51.5195 67.808 47.1675 66.272C42.8155 64.672 39.3595 62.56 36.7995 59.936L40.1595 54.464C42.2715 56.704 45.1515 58.56 48.7995 60.032C52.5115 61.504 56.5115 62.24 60.7995 62.24C66.4955 62.24 70.8155 60.992 73.7595 58.496C76.7675 55.936 78.2715 52.608 78.2715 48.512C78.2715 45.632 77.5675 43.168 76.1595 41.12C74.8155 39.008 72.5115 37.376 69.2475 36.224C65.9835 35.072 61.5035 34.496 55.8075 34.496H41.5035L44.9595 0.799995H81.7275V6.944H47.7435L51.2955 3.584L48.3195 31.808L44.7675 28.352H57.3435C64.1275 28.352 69.5675 29.184 73.6635 30.848C77.7595 32.512 80.7035 34.848 82.4955 37.856C84.3515 40.8 85.2795 44.256 85.2795 48.224C85.2795 52 84.3835 55.456 82.5915 58.592C80.7995 61.664 78.1115 64.096 74.5275 65.888C70.9435 67.68 66.3995 68.576 60.8955 68.576ZM105.767 68V3.68L108.839 6.944H89.9265V0.799995H112.679V68H105.767ZM149.67 0.223997C155.622 0.223997 160.646 1.568 164.742 4.256C168.838 6.88 171.942 10.688 174.054 15.68C176.166 20.672 177.222 26.72 177.222 33.824C177.222 41.376 175.91 47.744 173.286 52.928C170.726 58.112 167.142 62.016 162.534 64.64C157.926 67.264 152.582 68.576 146.502 68.576C143.494 68.576 140.614 68.288 137.862 67.712C135.174 67.136 132.742 66.208 130.566 64.928L133.35 59.36C135.078 60.512 137.062 61.344 139.302 61.856C141.606 62.304 143.974 62.528 146.406 62.528C153.638 62.528 159.398 60.224 163.686 55.616C168.038 51.008 170.214 44.128 170.214 34.976C170.214 33.504 170.118 31.744 169.926 29.696C169.798 27.648 169.446 25.6 168.87 23.552L171.27 25.376C170.63 28.704 169.254 31.552 167.142 33.92C165.094 36.224 162.534 37.984 159.462 39.2C156.454 40.416 153.094 41.024 149.382 41.024C144.966 41.024 141.03 40.192 137.574 38.528C134.182 36.864 131.526 34.528 129.606 31.52C127.686 28.512 126.726 24.96 126.726 20.864C126.726 16.64 127.718 12.992 129.702 9.92C131.686 6.848 134.406 4.48 137.862 2.816C141.382 1.088 145.318 0.223997 149.67 0.223997ZM149.958 6.08C146.758 6.08 143.91 6.688 141.414 7.904C138.982 9.056 137.062 10.72 135.654 12.896C134.246 15.072 133.542 17.664 133.542 20.672C133.542 25.088 135.046 28.608 138.054 31.232C141.126 33.856 145.254 35.168 150.438 35.168C153.894 35.168 156.902 34.528 159.462 33.248C162.086 31.968 164.102 30.208 165.51 27.968C166.982 25.728 167.718 23.232 167.718 20.48C167.718 17.984 167.046 15.648 165.702 13.472C164.358 11.296 162.374 9.536 159.75 8.192C157.126 6.784 153.862 6.08 149.958 6.08Z" fill="#837B7B"/>
</svg>
