<svg viewBox="0 0 450 202" fill="none" xmlns="http://www.w3.org/2000/svg"><g filter="url(#a)"><path d="M28.448 173.716V60.101c0-18.088-14.131-19.502-23.458-18.936-2.26.282-3.957-2.544-2.543-4.522L24.209 3.576c.565-1.131 1.695-1.696 3.108-1.414 7.631 1.979 42.677 9.327 42.677 26.567v113.333c0 18.088 13.849 19.501 23.458 18.936 2.26 0 3.957 2.543 2.543 4.522l-21.762 33.349c-.565.848-1.696 1.414-3.109 1.131-7.63-1.696-42.676-9.327-42.676-26.284Zm200.478-22.045c0 1.978-1.13 3.957-2.826 5.087l-31.654 19.784C186.533 190.391 169.575 200 153.748 200c-24.871 0-35.328-26.002-53.699-26.002-3.391 0-7.065.848-11.305 3.109-4.804 2.544-10.457-1.695-8.761-7.065 4.24-13.566 18.653-28.828 38.72-28.828 7.63 0 16.109 1.978 24.871 7.348 41.263 24.589 43.241 26.002 43.241 26.002s0-93.55-.282-93.55c-14.98 1.414-42.677 16.958-56.243 24.589-.565.565-1.696.848-2.543.848-7.066-1.696-37.872-8.196-37.872-23.458 0-10.74-.283-21.48 0-32.219 0-2.261.848-3.957 2.826-5.087l31.089-19.784c7.913-14.131 24.871-23.74 40.698-23.74 24.871 0 35.328 26 53.416 26 3.674 0 7.348-.847 11.588-3.108 4.804-2.544 10.457 1.978 8.761 7.066-4.239 13.566-18.936 29.11-39.002 29.11-7.349 0-15.827-2.26-24.589-7.348-41.546-24.589-43.241-26.002-43.241-26.002v31.937c6.5-2.544 13.848-4.24 22.044-4.24 27.415 0 40.698 23.741 40.698 23.741l31.654 19.784c1.979 1.13 2.827 2.826 2.827 5.087.282 15.827.282 31.371.282 47.481Zm19.407 22.045V60.101c0-18.088-14.132-19.502-23.458-18.936-2.261.282-3.957-2.544-2.544-4.522l21.762-33.067c.565-1.131 1.696-1.696 3.109-1.414 7.631 1.979 42.676 9.327 42.676 26.567v113.333c0 18.088 13.849 19.501 23.458 18.936 2.261 0 3.957 2.543 2.544 4.522l-21.762 33.349c-.565.848-1.696 1.414-3.109 1.131-7.631-1.696-42.676-9.327-42.676-26.284Zm199.952-22.045c0 1.978-1.13 3.957-2.826 5.087l-31.089 19.784C406.457 190.391 389.499 200 373.672 200c-24.871 0-35.328-26.002-53.698-26.002-3.392 0-7.066.848-11.305 3.109-4.805 2.544-10.458-1.978-8.762-7.065 4.24-13.566 18.936-29.111 39.002-29.111 7.349 0 15.827 2.261 24.589 7.349 41.263 24.588 43.241 26.284 43.241 26.284v-31.937c-6.5 2.261-13.848 3.957-22.044 3.957-27.415 0-40.698-23.458-40.698-23.458l-31.654-19.784c-1.979-1.13-2.827-3.109-2.827-5.087-.282-22.327-.282-44.372-.282-66.7 17.805-14.979 40.133-29.393 64.438-29.393 27.698 0 40.981 23.74 40.981 23.74l30.806 19.785c1.979 1.13 2.826 2.826 2.826 5.087.283 33.35.283 67.265 0 100.897ZM407.87 27.599s-17.24 1.695-56.525 24.305c0 23.176 0 46.351.283 69.244 14.696-1.131 43.806-16.958 56.242-24.023 0-23.176.283-46.068 0-69.526Z" fill="#000"/></g><defs><filter id="a" x=".033" y=".88" width="449.535" height="200.403" filterUnits="userSpaceOnUse" color-interpolation-filters="sRGB"><feFlood flood-opacity="0" result="BackgroundImageFix"/><feBlend in="SourceGraphic" in2="BackgroundImageFix" result="shape"/><feTurbulence type="fractalNoise" baseFrequency="2 2" numOctaves="3" seed="9212"/><feDisplacementMap in="shape" scale="2" xChannelSelector="R" yChannelSelector="G" result="displacedImage" width="100%" height="100%"/><feMerge result="effect1_texture_1_1588"><feMergeNode in="displacedImage"/></feMerge></filter></defs></svg>
