<svg viewBox="0 0 115 110" fill="none" xmlns="http://www.w3.org/2000/svg"><path d="M.985 54.46c0-16.17 5.408-29.148 16.223-38.933C28.021 5.742 41.514.85 57.686.85c16.325 0 29.947 4.84 40.865 14.523 10.969 9.682 16.454 22.891 16.454 39.629 0 16.222-5.253 29.354-15.759 39.397-10.454 10.042-24.23 15.063-41.328 15.063-16.635 0-30.282-5.021-40.942-15.063C6.316 84.356.986 71.044.986 54.46Zm17.69.541c0 16.84 3.348 29.484 10.043 37.93 6.746 8.446 16.84 12.669 30.281 12.669 11.794 0 21.115-4.223 27.965-12.67 6.849-8.445 10.274-21.037 10.274-37.774 0-16.274-3.373-28.737-10.12-37.389C80.372 9.064 70.587 4.712 57.763 4.712c-12.617 0-22.299 4.249-29.045 12.746-6.695 8.446-10.043 20.96-10.043 37.544Z" fill="#A22323"/></svg>
