<svg viewBox="0 0 96 109" fill="none" xmlns="http://www.w3.org/2000/svg"><path d="M91.899 67.689h3.322v36.693h-3.322c-.927-4.171-2.6-7.854-5.021-11.047-9.219 10.403-20.986 15.605-35.303 15.605-15.141 0-27.527-4.79-37.157-14.369C4.839 84.993.05 72.324.05 56.565c0-10.352 2.214-20.085 6.643-29.2C11.122 18.197 17.302 11.4 25.233 6.97 33.163 2.54 41.867.327 51.343.327c7.828 0 14.91 1.623 21.244 4.867 6.386 3.193 11.15 6.746 14.29 10.66 2.215-4.377 3.554-8.909 4.018-13.595h3.399l.927 39.706h-3.322c-2.317-14.111-7.055-23.922-14.214-29.432-7.107-5.51-15.14-8.266-24.102-8.266-10.97 0-19.698 4.455-26.187 13.364-6.438 8.91-9.656 21.656-9.656 38.239 0 15.707 3.527 27.758 10.583 36.152 7.055 8.343 15.836 12.515 26.342 12.515 5.613 0 11.355-1.365 17.226-4.095 5.871-2.73 10.506-7.338 13.905-13.827 3.45-6.54 5.485-12.85 6.103-18.926Z" fill="#A22323"/></svg>
