<svg viewBox="0 0 138 103" fill="none" xmlns="http://www.w3.org/2000/svg"><path d="M69.062 84.552 106.284.012h31.345v3.465h-3.767c-5.023 0-8.313.427-9.871 1.281-1.557.804-2.612 2.336-3.164 4.596-.503 2.26-.754 7.636-.754 16.125v50.107c0 8.037.201 13.311.603 15.823.402 2.461 1.406 4.295 3.014 5.5 1.658 1.206 4.797 1.809 9.418 1.809h4.521v3.466H88.804v-3.466h3.616c4.32 0 7.31-.553 8.967-1.658 1.708-1.105 2.788-2.813 3.24-5.124.502-2.36.753-7.81.753-16.35V10.56l-40.462 91.624h-3.541L20.613 10.56v59.827c0 8.188.251 13.763.754 16.727.502 2.964 2.06 5.576 4.671 7.836 2.612 2.21 6.28 3.466 11.001 3.768v3.466H.495v-3.466c4.37-.251 7.912-1.432 10.624-3.542 2.763-2.16 4.446-4.797 5.049-7.911.602-3.115.904-8.891.904-17.33V25.479c0-8.138-.251-13.387-.754-15.748-.452-2.36-1.456-3.993-3.014-4.897-1.507-.905-4.847-1.357-10.021-1.357H.495V.011h31.119l37.448 84.541Z" fill="#A22323"/></svg>
