<svg viewBox="0 0 131 132" fill="none" xmlns="http://www.w3.org/2000/svg"><path d="M.625 131.249v-4.56l3.648-.365c4.256-.486 7.478-1.094 9.667-1.824 2.31-.851 3.89-2.553 4.742-5.107.973-2.675 1.46-6.992 1.46-12.95V25.46c0-6.08-.426-10.397-1.278-12.95-.85-2.554-2.431-4.195-4.742-4.925-2.188-.85-5.41-1.52-9.667-2.006L.807 5.214V.654l26.995.547h25.717c16.416 0 30.278 2.19 41.586 6.567 11.43 4.377 20.124 11.308 26.083 20.793 5.958 9.363 8.937 21.644 8.937 36.843 0 10.822-1.824 20.307-5.472 28.454-3.648 8.147-8.633 14.956-14.956 20.428-6.323 5.472-13.558 9.606-21.705 12.403-8.025 2.675-16.476 4.013-25.353 4.013H27.62l-26.994.547Zm47.24-6.019H63.37c14.834 0 26.75-4.803 35.749-14.409 8.998-9.728 13.497-24.745 13.497-45.052 0-12.403-1.763-22.982-5.289-31.737-3.405-8.876-9.06-15.625-16.963-20.245-7.782-4.743-18.3-7.114-31.554-7.114H35.827v97.399c0 3.526.243 6.931.73 10.214.486 3.162 1.58 5.776 3.283 7.843 1.702 2.067 4.377 3.101 8.025 3.101Z" fill="#A22323"/></svg>
