<svg viewBox="0 0 81 102" fill="none" xmlns="http://www.w3.org/2000/svg"><path d="M0 101.566v-3.527l2.821-.282c3.292-.376 5.784-.846 7.476-1.41 1.787-.659 3.01-1.975 3.668-3.95.658-2.069.988-5.407.988-10.015V19.75c0-4.702-.33-8.04-.988-10.015-.658-1.975-1.88-3.244-3.668-3.809-1.692-.658-4.184-1.175-7.476-1.551L0 4.092V.566l20.877.423h19.184c5.643 0 10.91.376 15.8 1.129 4.89.658 9.168 1.974 12.836 3.95 3.668 1.88 6.536 4.654 8.605 8.322 2.069 3.668 3.103 8.417 3.103 14.247 0 8.37-3.15 15.14-9.451 20.313-6.3 5.172-15.47 7.758-27.507 7.758H26.943v25.674c0 4.608.376 7.946 1.128 10.015.847 1.975 2.304 3.291 4.373 3.95 2.069.564 4.984 1.034 8.746 1.41l3.103.282v3.527l-23.84-.423L0 101.566ZM45.563 4.939h-18.62v47.538h16.504c6.489 0 11.426-.94 14.811-2.822 3.386-1.88 5.69-4.608 6.912-8.181 1.223-3.574 1.834-7.853 1.834-12.837 0-5.36-.705-9.592-2.116-12.695-1.316-3.198-3.103-5.596-5.36-7.195-2.163-1.598-4.514-2.633-7.053-3.103-2.445-.47-4.75-.705-6.912-.705Z" fill="#A22323"/></svg>
